<?xml version="1.0" encoding="UTF-8"?>
<svg id="_Слой_1" data-name="Слой 1" xmlns="http://www.w3.org/2000/svg" viewBox="0 0 1078.47 390.02">
  <defs>
    <style>
      .cls-1 {
        stroke-width: 0px;
      }
    </style>
  </defs>
  <path class="cls-1" d="m156.88,87.52h.03l-.03-.03v-.17h-.17L84.89,15.51h-7.99C41.54,15.51,12.87,44.18,12.87,79.54v7.98h71.99v216.15H12.8v72.02h72.06s72.02.01,72.02.01h0s71.06-.01,71.06-.01v-72.02h-71.06V87.52Z"/>
  <path class="cls-1" d="m548.26,15.51h-231.92c-35.36,0-64.03,28.67-64.03,64.03v232.13c0,35.36,28.67,64.03,64.03,64.03h231.92c35.36,0,64.03-28.67,64.03-64.03V79.54c0-35.36-28.67-64.03-64.03-64.03Zm-7.99,288.17h-215.94V87.53h215.94v216.16Z"/>
  <path class="cls-1" d="m1005.52,231.5h-7.99v-72.02h-215.95V15.51h-72.02v360.02h295.96c35.36,0,64.03-28.67,64.03-64.03v-15.97c0-35.36-28.67-64.03-64.03-64.03Zm-7.99,72.02h-215.95v-72.01h215.95v72.01Z"/>
</svg>